<?xml version="1.0" encoding="UTF-8"?>
<svg width="1200" height="1500" viewBox="0 0 1200 1500" fill="none" xmlns="http://www.w3.org/2000/svg">
  <defs>
    <linearGradient id="bg" x1="80" y1="40" x2="1120" y2="1460" gradientUnits="userSpaceOnUse">
      <stop stop-color="#d1ded9"/>
      <stop offset="0.55" stop-color="#8cada1"/>
      <stop offset="1" stop-color="#375349"/>
    </linearGradient>
    <radialGradient id="halo" cx="0" cy="0" r="1" gradientUnits="userSpaceOnUse" gradientTransform="translate(926 264) rotate(90) scale(420 420)">
      <stop stop-color="#e8efec" stop-opacity="0.85"/>
      <stop offset="1" stop-color="#e8efec" stop-opacity="0"/>
    </radialGradient>
    <linearGradient id="panel" x1="92" y1="918" x2="1098" y2="1364" gradientUnits="userSpaceOnUse">
      <stop stop-color="rgba(19,16,16,0.22)"/>
      <stop offset="1" stop-color="rgba(19,16,16,0.34)"/>
    </linearGradient>
  </defs>
  <rect width="1200" height="1500" rx="56" fill="url(#bg)"/>
  <rect x="56" y="56" width="1088" height="1388" rx="42" stroke="rgba(255,247,239,0.22)" stroke-width="2"/>
  <circle cx="926" cy="264" r="420" fill="url(#halo)"/>
  <path d="M168 288C304 132 526 88 742 154C924 210 1030 332 1090 474" stroke="rgba(255,247,239,0.12)" stroke-width="22" stroke-linecap="round"/>
  <path d="M88 956C222 818 410 742 612 742C796 742 964 804 1108 930" stroke="rgba(255,247,239,0.16)" stroke-width="14" stroke-linecap="round"/>
  <path d="M118 1046C290 942 444 900 622 900C808 900 954 944 1082 1032" stroke="rgba(255,247,239,0.12)" stroke-width="8" stroke-linecap="round"/>
  <rect x="92" y="98" width="252" height="54" rx="27" fill="rgba(255,247,239,0.12)"/>
  <text x="218" y="132" text-anchor="middle" fill="#FFF7EF" font-size="21" font-family="Helvetica Neue, Arial, sans-serif" letter-spacing="3">KONCERT TOGETHER</text>
  <text x="98" y="224" fill="#FFF7EF" font-size="20" font-family="Helvetica Neue, Arial, sans-serif" opacity="0.84" letter-spacing="6">ARTIST GUIDE</text>
  <text x="96" y="1044" fill="#FFF7EF" font-size="126" font-family="Georgia, serif" font-weight="700"><tspan x="96" dy="0">fromis_9</tspan></text>
  <rect x="92" y="1128" width="1014" height="238" rx="34" fill="url(#panel)"/>
  <text x="128" y="1194" fill="#FFF7EF" font-size="24" font-family="Helvetica Neue, Arial, sans-serif" opacity="0.92">프로미스나인  •  fan name flover</text>
  <text x="128" y="1248" fill="#FFF7EF" font-size="22" font-family="Helvetica Neue, Arial, sans-serif" opacity="0.8">8 members  •  2018  •  South Korea</text>
  <text x="128" y="1318" fill="#FFF7EF" font-size="48" font-family="Georgia, serif" opacity="0.94">粉圈热度 / 韩国场 现场情报</text>
  <text x="128" y="1356" fill="#FFF7EF" font-size="20" font-family="Helvetica Neue, Arial, sans-serif" opacity="0.7">tour notes • member profile • fandom entry</text>
</svg>