<?xml version="1.0" encoding="UTF-8"?>
<svg width="1200" height="1500" viewBox="0 0 1200 1500" fill="none" xmlns="http://www.w3.org/2000/svg">
  <defs>
    <linearGradient id="bg" x1="80" y1="40" x2="1120" y2="1460" gradientUnits="userSpaceOnUse">
      <stop stop-color="#cdd4dc"/>
      <stop offset="0.55" stop-color="#8294a7"/>
      <stop offset="1" stop-color="#2e3d4d"/>
    </linearGradient>
    <radialGradient id="halo" cx="0" cy="0" r="1" gradientUnits="userSpaceOnUse" gradientTransform="translate(890 280) rotate(90) scale(360 360)">
      <stop stop-color="#e6eaed" stop-opacity="0.85"/>
      <stop offset="1" stop-color="#e6eaed" stop-opacity="0"/>
    </radialGradient>
  </defs>
  <rect width="1200" height="1500" rx="56" fill="url(#bg)"/>
  <rect x="56" y="56" width="1088" height="1388" rx="42" stroke="rgba(255,247,239,0.26)" stroke-width="2"/>
  <circle cx="890" cy="280" r="360" fill="url(#halo)"/>
  <circle cx="268" cy="268" r="198" fill="rgba(255,247,239,0.10)"/>
  <path d="M94 1152C234 980 402 874 612 874C786 874 954 944 1102 1098" stroke="rgba(255,247,239,0.18)" stroke-width="18" stroke-linecap="round"/>
  <path d="M132 1264C286 1128 452 1068 612 1068C760 1068 920 1116 1060 1232" stroke="rgba(255,247,239,0.12)" stroke-width="10" stroke-linecap="round"/>
  <text x="96" y="126" fill="#FFF7EF" font-size="24" font-family="Arial, sans-serif" letter-spacing="5">KONCERT TOGETHER</text>
  <text x="96" y="206" fill="#FFF7EF" font-size="22" font-family="Arial, sans-serif" opacity="0.86" letter-spacing="4">ARTIST FILE</text>
  <rect x="96" y="1134" width="1008" height="216" rx="34" fill="rgba(18,15,14,0.16)"/>
  <text x="96" y="990" fill="#FFF7EF" font-size="126" font-family="Georgia, serif" font-weight="700"><tspan x="96" dy="0">SUPER JUNIOR</tspan></text>
  <text x="96" y="1226" fill="#FFF7EF" font-size="28" font-family="Arial, sans-serif" opacity="0.92">슈퍼주니어  •  E.L.F. fan guide</text>
  <text x="96" y="1284" fill="#FFF7EF" font-size="24" font-family="Arial, sans-serif" opacity="0.84">9 members  •  2005</text>
  <text x="96" y="1328" fill="#FFF7EF" font-size="22" font-family="Arial, sans-serif" opacity="0.72">经典团体 / Arena 现场情报</text>
</svg>