<?xml version="1.0" encoding="UTF-8"?>
<svg width="1200" height="1500" viewBox="0 0 1200 1500" fill="none" xmlns="http://www.w3.org/2000/svg">
  <defs>
    <linearGradient id="bg" x1="120" y1="60" x2="1080" y2="1440" gradientUnits="userSpaceOnUse">
      <stop stop-color="#d9dadd"/>
      <stop offset="0.58" stop-color="#9698a1"/>
      <stop offset="1" stop-color="#3f4148"/>
    </linearGradient>
    <linearGradient id="panel" x1="88" y1="956" x2="1110" y2="1368" gradientUnits="userSpaceOnUse">
      <stop stop-color="rgba(20,16,16,0.18)"/>
      <stop offset="1" stop-color="rgba(20,16,16,0.36)"/>
    </linearGradient>
  </defs>
  <rect width="1200" height="1500" rx="56" fill="url(#bg)"/>
  <rect x="66" y="70" width="1068" height="1360" rx="42" stroke="rgba(255,247,239,0.22)" stroke-width="2"/>
  <circle cx="962" cy="236" r="236" fill="rgba(255,247,239,0.12)"/>
  <path d="M184 154L1018 612" stroke="rgba(255,247,239,0.08)" stroke-width="84" stroke-linecap="round"/>
  <path d="M86 854C254 738 458 688 660 712C854 734 1006 810 1112 902" stroke="rgba(255,247,239,0.14)" stroke-width="16" stroke-linecap="round"/>
  <rect x="88" y="100" width="166" height="194" rx="34" fill="rgba(20,16,16,0.18)"/>
  <text x="171" y="174" text-anchor="middle" fill="#FFF7EF" font-size="30" font-family="Helvetica Neue, Arial, sans-serif" letter-spacing="4">OCT</text>
  <text x="171" y="248" text-anchor="middle" fill="#FFF7EF" font-size="86" font-family="Georgia, serif" font-weight="700">17</text>
  <rect x="92" y="344" width="238" height="52" rx="26" fill="rgba(255,247,239,0.11)"/>
  <text x="211" y="377" text-anchor="middle" fill="#FFF7EF" font-size="20" font-family="Helvetica Neue, Arial, sans-serif" letter-spacing="4">LIVE SCHEDULE</text>
  <text x="92" y="528" fill="#FFF7EF" font-size="108" font-family="Georgia, serif" font-weight="700"><tspan x="92" dy="0">Taeyeon</tspan></text>
  <text x="92" y="724" fill="#FFF7EF" font-size="84" font-family="Georgia, serif" ><tspan x="92" dy="0">Seoul</tspan></text>
  <text x="94" y="830" fill="#edeeef" font-size="30" font-family="Helvetica Neue, Arial, sans-serif" opacity="0.96">South Korea</text>
  <rect x="88" y="968" width="1022" height="356" rx="36" fill="url(#panel)"/>
  <text x="126" y="1040" fill="#FFF7EF" font-size="18" font-family="Helvetica Neue, Arial, sans-serif" opacity="0.7" letter-spacing="4">VENUE</text>
  <text x="126" y="1100" fill="#FFF7EF" font-size="42" font-family="Georgia, serif" font-family="Helvetica Neue, Arial, sans-serif" font-weight="600"><tspan x="126" dy="0">KSPO Dome</tspan></text>
  <text x="126" y="1188" fill="#FFF7EF" font-size="18" font-family="Helvetica Neue, Arial, sans-serif" opacity="0.7" letter-spacing="4">TOUR</text>
  <text x="126" y="1234" fill="#FFF7EF" font-size="30" font-family="Georgia, serif" opacity="0.95">Taeyeon Tour Watch</text>
  <text x="126" y="1302" fill="#FFF7EF" font-size="22" font-family="Helvetica Neue, Arial, sans-serif" opacity="0.78">Solo  •  韩国场</text>
  <text x="126" y="1362" fill="#FFF7EF" font-size="20" font-family="Helvetica Neue, Arial, sans-serif" opacity="0.68">Koncert Together • concert note</text>
</svg>